<?xml version="1.0" encoding="iso-8859-1"?>
<!-- Generator: Adobe Illustrator 19.0.0, SVG Export Plug-In . SVG Version: 6.00 Build 0)  -->
<svg version="1.1" id="Layer_1" xmlns="http://www.w3.org/2000/svg" xmlns:xlink="http://www.w3.org/1999/xlink" x="0px" y="0px"
	 viewBox="0 0 480 480" style="enable-background:new 0 0 480 480;" xml:space="preserve">
<polygon style="fill:#EDEDED;" points="336,328 368,328 400,328 400,288 416,288 368,248 320,288 336,288 "/>
<path style="fill:#12ADDD;" d="M440,216h-16h-50.216h-43.56h-4.44h-43.56H88c-17.672,0-32,14.328-32,32v16v176
	c0,17.672,14.328,32,32,32h352c17.672,0,32-14.328,32-32V248C472,230.328,457.672,216,440,216z M368,248l48,40h-16v40h-32h-32v-40
	h-16L368,248z M104,272c0-8.84,7.16-16,16-16h48c8.84,0,16,7.16,16,16v32c0,8.84-7.16,16-16,16h-48c-8.84,0-16-7.16-16-16V272z"/>
<path style="fill:#D84444;" d="M120,320h48c8.84,0,16-7.16,16-16v-32c0-8.84-7.16-16-16-16h-48c-8.84,0-16,7.16-16,16v32
	C104,312.84,111.16,320,120,320z"/>
<g>
	<path style="fill:#71CBEA;" d="M424,40c0-17.672-14.328-32-32-32H40C22.328,8,8,22.328,8,40v32h416V40z"/>
	<path style="fill:#71CBEA;" d="M88,216h194.216c-1.368-2.36-2.216-5.072-2.216-8v-16c0-8.84,7.16-16,16-16h16c8.84,0,16,7.16,16,16
		c0-8.84,7.16-16,16-16h16c8.84,0,16,7.16,16,16v16c0,2.928-0.848,5.64-2.216,8H424v-96H8v112c0,17.672,14.328,32,32,32h16v-16
		C56,230.328,70.328,216,88,216z"/>
</g>
<g>
	<rect x="8" y="72" style="fill:#EDEDED;" width="416" height="48"/>
	<path style="fill:#EDEDED;" d="M376,192c0-8.84-7.16-16-16-16h-16c-8.84,0-16,7.16-16,16c0-8.84-7.16-16-16-16h-16
		c-8.84,0-16,7.16-16,16v16c0,2.928,0.848,5.64,2.216,8h43.56h4.44h43.56c1.376-2.36,2.224-5.072,2.224-8V192z"/>
</g>
<g>
	<path style="fill:#2D2D2D;" d="M440,208h-8v-88V72V40c0-22.056-17.944-40-40-40H40C17.944,0,0,17.944,0,40v32v48v112
		c0,22.056,17.944,40,40,40h8v168c0,22.056,17.944,40,40,40h352c22.056,0,40-17.944,40-40V248C480,225.944,462.056,208,440,208z
		 M16,80h400v32H16V80z M40,16h352c13.232,0,24,10.768,24,24v24H16V40C16,26.768,26.768,16,40,16z M40,256
		c-13.232,0-24-10.768-24-24V128h400v80h-32v-16c0-13.232-10.768-24-24-24h-16c-6.168,0-11.744,2.408-16,6.24
		c-4.256-3.84-9.832-6.24-16-6.24h-16c-13.232,0-24,10.768-24,24v16H88c-22.056,0-40,17.944-40,40v8H40z M320,208h-32v-16
		c0-4.408,3.592-8,8-8h16c4.408,0,8,3.592,8,8V208z M336,192c0-4.408,3.592-8,8-8h16c4.408,0,8,3.592,8,8v16h-32V192z M464,440
		c0,13.232-10.768,24-24,24H88c-13.232,0-24-10.768-24-24V264v-16c0-13.232,10.768-24,24-24h194.216h43.56h4.44h43.56H424h16
		c13.232,0,24,10.768,24,24V440z"/>
	<path style="fill:#2D2D2D;" d="M120,328h48c13.232,0,24-10.768,24-24v-32c0-13.232-10.768-24-24-24h-48c-13.232,0-24,10.768-24,24
		v32C96,317.232,106.768,328,120,328z M112,272c0-4.408,3.592-8,8-8h48c4.408,0,8,3.592,8,8v32c0,4.408-3.592,8-8,8h-48
		c-4.408,0-8-3.592-8-8V272z"/>
	<rect x="96" y="416" style="fill:#2D2D2D;" width="128" height="16"/>
	<rect x="96" y="368" style="fill:#2D2D2D;" width="64" height="16"/>
	<rect x="184" y="368" style="fill:#2D2D2D;" width="64" height="16"/>
	<rect x="272" y="368" style="fill:#2D2D2D;" width="64" height="16"/>
	<rect x="360" y="368" style="fill:#2D2D2D;" width="64" height="16"/>
	<rect x="256" y="416" style="fill:#2D2D2D;" width="128" height="16"/>
	<path style="fill:#2D2D2D;" d="M408,296h8c3.368,0,6.376-2.112,7.52-5.28c1.144-3.168,0.184-6.712-2.4-8.864l-48-40
		c-2.968-2.48-7.272-2.48-10.24,0l-48,40c-2.584,2.16-3.544,5.696-2.4,8.864c1.144,3.168,4.152,5.28,7.52,5.28h8v24h-16v16h112v-16
		h-16V296z M392,320h-16v-24h16V320z M368,258.416L393.904,280h-51.808L368,258.416z M344,296h16v24h-16V296z"/>
</g>
<g>
</g>
<g>
</g>
<g>
</g>
<g>
</g>
<g>
</g>
<g>
</g>
<g>
</g>
<g>
</g>
<g>
</g>
<g>
</g>
<g>
</g>
<g>
</g>
<g>
</g>
<g>
</g>
<g>
</g>
</svg>
