<?xml version="1.0" encoding="iso-8859-1"?>
<!-- Generator: Adobe Illustrator 19.0.0, SVG Export Plug-In . SVG Version: 6.00 Build 0)  -->
<svg version="1.1" id="Capa_1" xmlns="http://www.w3.org/2000/svg" xmlns:xlink="http://www.w3.org/1999/xlink" x="0px" y="0px"
	 viewBox="0 0 511.634 511.634" style="enable-background:new 0 0 511.634 511.634;" xml:space="preserve">
<g>
	<g>
		<path d="M255.825,87.937c-70.528,0-127.909,57.381-127.909,127.908c0,46.616,25.295,89.538,66.008,112.014
			c0.609,0.344,1.272,0.5,1.928,0.5c1.405,0,2.771-0.749,3.497-2.061c1.07-1.936,0.368-4.372-1.569-5.434
			c-38.16-21.079-61.87-61.316-61.87-105.019c0-66.121,53.79-119.914,119.915-119.914c2.209,0,3.997-1.788,3.997-3.997
			C259.822,89.724,258.034,87.937,255.825,87.937z"/>
	</g>
</g>
<g>
	<g>
		<path d="M255.825,87.936c-2.21,0-3.998,1.787-3.998,3.997c0,2.209,1.788,3.997,3.998,3.997
			c66.116,0,119.906,53.793,119.906,119.914c0,43.704-23.71,83.941-61.87,105.019c-1.935,1.063-2.638,3.498-1.568,5.434
			c0.726,1.313,2.092,2.062,3.497,2.062c0.655,0,1.319-0.156,1.928-0.501c40.713-22.476,66.007-65.399,66.007-112.014
			C383.725,145.317,326.352,87.936,255.825,87.936z"/>
	</g>
</g>
<g>
	<g>
		<path d="M195.867,320.365c-2.209,0-3.997,1.788-3.997,3.997v63.361c0,2.209,1.788,3.996,3.997,3.996
			c2.21,0,3.997-1.787,3.997-3.996v-63.361C199.864,322.153,198.076,320.365,195.867,320.365z"/>
	</g>
</g>
<g>
	<g>
		<path d="M315.774,320.458c-2.21,0-3.997,1.788-3.997,3.997v63.268c0,2.209,1.787,3.996,3.997,3.996
			c2.209,0,3.997-1.787,3.997-3.996v-63.268C319.771,322.246,317.983,320.458,315.774,320.458z"/>
	</g>
</g>
<g>
	<g>
		<path d="M315.774,335.761H195.867c-2.209,0-3.997,1.787-3.997,3.996c0,2.21,1.788,3.998,3.997,3.998h119.907
			c2.209,0,3.997-1.789,3.997-3.998C319.771,337.548,317.983,335.761,315.774,335.761z"/>
	</g>
</g>
<g>
	<g>
		<path d="M318.599,384.898c-1.561-1.562-4.09-1.562-5.652,0l-14.817,14.817h-84.62l-14.817-14.817c-1.561-1.562-4.09-1.562-5.652,0
			c-1.561,1.56-1.561,4.09,0,5.652l15.989,15.988c0.749,0.749,1.764,1.171,2.826,1.171h87.929c1.062,0,2.077-0.422,2.825-1.171
			l15.989-15.988C320.161,388.988,320.161,386.459,318.599,384.898z"/>
	</g>
</g>
<g>
	<g>
		<path d="M323.534,351.756l-135.895,7.994c-2.201,0.133-3.888,2.022-3.755,4.224c0.125,2.123,1.882,3.763,3.989,3.763
			c0.078,0,0.156,0,0.234-0.008l135.896-7.994c2.201-0.133,3.888-2.022,3.755-4.224C327.625,353.31,325.713,351.686,323.534,351.756
			z"/>
	</g>
</g>
<g>
	<g>
		<path d="M323.534,367.744l-135.895,7.994c-2.201,0.133-3.888,2.023-3.755,4.224c0.125,2.124,1.882,3.763,3.989,3.763
			c0.078,0,0.156,0,0.234-0.008l135.896-7.994c2.201-0.133,3.888-2.022,3.755-4.223
			C327.625,369.298,325.713,367.588,323.534,367.744z"/>
	</g>
</g>
<g>
	<g>
		<path d="M285.6,400.151c-1.983-0.991-4.364-0.203-5.371,1.757c-0.289,0.563-7.268,13.795-24.404,13.795
			c-17.114,0-24.101-13.186-24.413-13.795c-0.991-1.96-3.38-2.755-5.355-1.772c-1.976,0.984-2.772,3.388-1.788,5.363
			c0.375,0.742,9.353,18.198,31.556,18.198c22.194,0,31.173-17.456,31.547-18.198C288.356,403.532,287.56,401.151,285.6,400.151z"/>
	</g>
</g>
<g>
	<g>
		<path d="M235.838,287.793c-2.209,0-3.997,1.788-3.997,3.998v31.977c0,2.21,1.788,3.997,3.997,3.997
			c2.21,0,3.998-1.787,3.998-3.997v-31.977C239.836,289.581,238.048,287.793,235.838,287.793z"/>
	</g>
</g>
<g>
	<g>
		<path d="M275.802,287.793c-2.209,0-3.997,1.788-3.997,3.998v31.977c0,2.21,1.788,3.997,3.997,3.997
			c2.209,0,3.997-1.787,3.997-3.997v-31.977C279.799,289.581,278.011,287.793,275.802,287.793z"/>
	</g>
</g>
<g>
	<g>
		<path d="M258.947,273.305c-1.373-1.718-3.88-1.999-5.621-0.624l-19.986,15.988c-1.726,1.382-1.999,3.895-0.625,5.621
			c0.789,0.983,1.952,1.499,3.123,1.499c0.875,0,1.757-0.282,2.499-0.875l19.986-15.988
			C260.049,277.544,260.322,275.031,258.947,273.305z"/>
	</g>
</g>
<g>
	<g>
		<path d="M278.3,288.669l-19.978-15.988c-1.725-1.375-4.231-1.102-5.621,0.624c-1.374,1.725-1.1,4.239,0.625,5.621l19.978,15.988
			c0.741,0.594,1.616,0.875,2.498,0.875c1.171,0,2.334-0.516,3.123-1.499C280.299,292.565,280.026,290.051,278.3,288.669z"/>
	</g>
</g>
<g>
	<g>
		<path d="M235.838,215.845c-2.209,0-3.997,1.788-3.997,3.997v55.96c0,2.21,1.788,3.997,3.997,3.997c2.21,0,3.998-1.787,3.998-3.997
			v-55.96C239.836,217.633,238.048,215.845,235.838,215.845z"/>
	</g>
</g>
<g>
	<g>
		<path d="M219.85,199.857c-11.024,0-19.986,8.965-19.986,19.985c0,2.21,1.788,3.997,3.998,3.997c2.209,0,3.997-1.787,3.997-3.997
			c0-6.612,5.379-11.991,11.991-11.991s11.991,5.379,11.991,11.991c0,2.21,1.788,3.997,3.997,3.997c2.21,0,3.998-1.787,3.998-3.997
			C239.836,208.823,230.874,199.857,219.85,199.857z"/>
	</g>
</g>
<g>
	<g>
		<path d="M219.85,231.835c-6.612,0-11.991-5.379-11.991-11.992c0-2.209-1.788-3.997-3.997-3.997c-2.21,0-3.998,1.788-3.998,3.997
			c0,11.019,8.963,19.986,19.986,19.986c2.209,0,3.997-1.788,3.997-3.997C223.847,233.623,222.059,231.835,219.85,231.835z"/>
	</g>
</g>
<g>
	<g>
		<path d="M275.802,215.845c-2.209,0-3.997,1.788-3.997,3.997v55.96c0,2.21,1.788,3.997,3.997,3.997
			c2.209,0,3.997-1.787,3.997-3.997v-55.96C279.799,217.633,278.011,215.845,275.802,215.845z"/>
	</g>
</g>
<g>
	<g>
		<path d="M291.791,199.857c-11.023,0-19.985,8.965-19.985,19.985c0,2.21,1.788,3.997,3.997,3.997c2.209,0,3.997-1.787,3.997-3.997
			c0-6.612,5.379-11.991,11.991-11.991c6.613,0,11.992,5.379,11.992,11.991c0,2.21,1.787,3.997,3.997,3.997
			c2.209,0,3.997-1.787,3.997-3.997C311.777,208.823,302.814,199.857,291.791,199.857z"/>
	</g>
</g>
<g>
	<g>
		<path d="M307.78,215.845c-2.21,0-3.997,1.788-3.997,3.997c0,6.613-5.379,11.992-11.992,11.992c-2.209,0-3.997,1.787-3.997,3.997
			s1.788,3.998,3.997,3.998c11.023,0,19.986-8.967,19.986-19.987C311.777,217.633,309.989,215.845,307.78,215.845z"/>
	</g>
</g>
<g>
	<g>
		<path d="M255.825,119.913c-52.901,0-95.932,43.036-95.932,95.932c0,2.209,1.788,3.997,3.997,3.997s3.997-1.787,3.997-3.997
			c0-48.489,39.449-87.937,87.938-87.937c2.209,0,3.997-1.788,3.997-3.998C259.822,121.701,258.034,119.913,255.825,119.913z"/>
	</g>
</g>
<g>
	<g>
		<path d="M259.822,231.834h-7.995c-2.209,0-3.997,1.787-3.997,3.997s1.788,3.998,3.997,3.998h7.995
			c2.209,0,3.997-1.789,3.997-3.998S262.031,231.834,259.822,231.834z"/>
	</g>
</g>
<g>
	<g>
		<path d="M357.377,29.596c-31.961-14.333-66.132-21.602-101.56-21.602C119.164,7.994,7.994,119.169,7.994,255.817
			c0,29.369,5.051,58.084,15.012,85.346c0.593,1.623,2.123,2.623,3.755,2.623c0.453,0,0.922-0.078,1.374-0.242
			c2.069-0.758,3.139-3.053,2.381-5.129c-9.641-26.372-14.528-54.165-14.528-82.598c0-132.242,107.587-239.829,239.829-239.829
			c34.288,0,67.366,7.03,98.298,20.9c2.006,0.898,4.38,0.008,5.277-2.01C360.297,32.864,359.392,30.498,357.377,29.596z"/>
	</g>
</g>
<g>
	<g>
		<path d="M359.719,32.789c-0.258-2.198-2.296-3.802-4.427-3.517l-23.982,2.732c-2.194,0.249-3.771,2.229-3.521,4.422
			c0.235,2.038,1.968,3.545,3.966,3.545c0.156,0,0.304-0.008,0.461-0.027l23.982-2.732
			C358.392,36.962,359.968,34.982,359.719,32.789z"/>
	</g>
</g>
<g>
	<g>
		<path d="M358.939,30.837l-15.988-21.25c-1.327-1.769-3.841-2.108-5.598-0.789c-1.765,1.327-2.115,3.834-0.788,5.598l15.988,21.25
			c0.781,1.042,1.982,1.593,3.193,1.593c0.842,0,1.685-0.262,2.405-0.805C359.915,35.107,360.266,32.601,358.939,30.837z"/>
	</g>
</g>
<g>
	<g>
		<path d="M488.651,170.507c-0.757-2.073-3.044-3.135-5.129-2.385c-2.069,0.757-3.139,3.053-2.381,5.125
			c9.626,26.364,14.506,54.145,14.506,82.57c0,132.241-107.588,239.829-239.829,239.829c-34.304,0-67.374-7.042-98.29-20.915
			c-2.006-0.898-4.379-0.008-5.285,2.006c-0.906,2.014-0.008,4.388,2.006,5.285c31.953,14.342,66.124,21.618,101.568,21.618
			c136.652,0,247.823-111.171,247.824-247.822C503.641,226.456,498.597,197.754,488.651,170.507z"/>
	</g>
</g>
<g>
	<g>
		<path d="M183.844,475.208c-0.257-2.202-2.271-3.795-4.426-3.514l-23.983,2.717c-2.194,0.242-3.771,2.217-3.521,4.419
			c0.234,2.038,1.959,3.544,3.966,3.544c0.157,0,0.305-0.008,0.46-0.031l23.983-2.717
			C182.517,479.384,184.094,477.409,183.844,475.208z"/>
	</g>
</g>
<g>
	<g>
		<path d="M175.071,497.238l-15.989-21.267c-1.32-1.765-3.818-2.116-5.598-0.788c-1.765,1.32-2.116,3.833-0.789,5.598l15.989,21.266
			c0.781,1.046,1.983,1.593,3.193,1.593c0.835,0,1.678-0.265,2.405-0.804C176.047,501.515,176.398,499.002,175.071,497.238z"/>
	</g>
</g>
<g>
	<g>
		<path d="M371.734,67.951c-2.209,0-3.997,1.788-3.997,3.997v19.986c0,2.209,1.788,3.997,3.997,3.997
			c2.209,0,3.997-1.788,3.997-3.997V71.948C375.731,69.739,373.943,67.951,371.734,67.951z"/>
	</g>
</g>
<g>
	<g>
		<path d="M439.685,0c-39.675,0-71.948,32.277-71.948,71.948c0,39.671,32.273,71.949,71.948,71.949s71.949-32.278,71.949-71.949
			C511.634,32.277,479.36,0,439.685,0z M439.685,135.903c-35.264,0-63.954-28.691-63.954-63.955
			c0-35.264,28.69-63.954,63.954-63.954c35.264,0,63.955,28.69,63.955,63.954C503.64,107.213,474.949,135.903,439.685,135.903z"/>
	</g>
</g>
<g>
	<g>
		<path d="M507.637,87.937c-2.21,0-3.997,1.787-3.997,3.997c0,35.264-28.691,63.954-63.955,63.954
			c-35.264,0-63.954-28.69-63.954-63.954c0-2.21-1.788-3.997-3.997-3.997c-2.209,0-3.997,1.787-3.997,3.997
			c0,39.671,32.273,71.948,71.948,71.948s71.949-32.277,71.949-71.948C511.634,89.724,509.846,87.937,507.637,87.937z"/>
	</g>
</g>
<g>
	<g>
		<path d="M439.685,43.968c-2.209,0-3.997,1.788-3.997,3.997v47.966c0,2.209,1.788,3.997,3.997,3.997
			c2.21,0,3.998-1.788,3.998-3.997V47.965C443.683,45.756,441.895,43.968,439.685,43.968z"/>
	</g>
</g>
<g>
	<g>
		<path d="M507.637,67.951c-2.21,0-3.997,1.788-3.997,3.997v19.986c0,2.209,1.787,3.997,3.997,3.997
			c2.209,0,3.997-1.788,3.997-3.997V71.948C511.634,69.739,509.846,67.951,507.637,67.951z"/>
	</g>
</g>
<g>
	<g>
		<path d="M411.706,129.883c-2.21,0-3.997,1.788-3.997,3.997v19.986c0,2.209,1.787,3.997,3.997,3.997
			c2.209,0,3.997-1.787,3.997-3.997V133.88C415.703,131.671,413.915,129.883,411.706,129.883z"/>
	</g>
</g>
<g>
	<g>
		<path d="M475.66,125.597c-2.209,0-3.997,1.788-3.997,3.997v19.986c0,2.21,1.788,3.998,3.997,3.998
			c2.209,0,3.997-1.788,3.997-3.998v-19.986C479.657,127.385,477.869,125.597,475.66,125.597z"/>
	</g>
</g>
<g>
	<g>
		<path d="M3.997,415.703c-2.21,0-3.997,1.788-3.997,3.997v19.986c0,2.209,1.787,3.997,3.997,3.997c2.209,0,3.997-1.788,3.997-3.997
			V419.7C7.994,417.491,6.206,415.703,3.997,415.703z"/>
	</g>
</g>
<g>
	<g>
		<path d="M71.948,347.752C32.273,347.752,0,380.025,0,419.7c0,39.675,32.273,71.949,71.948,71.949
			c39.675,0,71.949-32.274,71.949-71.949S111.623,347.752,71.948,347.752z M71.948,483.655c-35.264,0-63.954-28.691-63.954-63.955
			c0-35.264,28.69-63.954,63.954-63.954c35.264,0,63.954,28.69,63.954,63.954C135.902,454.964,107.212,483.655,71.948,483.655z"/>
	</g>
</g>
<g>
	<g>
		<path d="M139.9,435.688c-2.21,0-3.998,1.788-3.998,3.998c0,35.264-28.69,63.954-63.954,63.954
			c-35.264,0-63.954-28.69-63.954-63.954c0-2.21-1.788-3.998-3.997-3.998c-2.21,0-3.997,1.788-3.997,3.998
			c0,39.674,32.273,71.948,71.948,71.948c39.675,0,71.949-32.274,71.949-71.948C143.897,437.476,142.11,435.688,139.9,435.688z"/>
	</g>
</g>
<g>
	<g>
		<path d="M71.948,391.719c-2.209,0-3.997,1.788-3.997,3.998v47.966c0,2.209,1.788,3.997,3.997,3.997
			c2.209,0,3.997-1.788,3.997-3.997v-47.966C75.945,393.507,74.157,391.719,71.948,391.719z"/>
	</g>
</g>
<g>
	<g>
		<path d="M139.9,415.703c-2.21,0-3.998,1.788-3.998,3.997v19.986c0,2.209,1.789,3.997,3.998,3.997s3.997-1.788,3.997-3.997V419.7
			C143.897,417.491,142.11,415.703,139.9,415.703z"/>
	</g>
</g>
<g>
	<g>
		<path d="M43.968,477.644c-2.209,0-3.997,1.787-3.997,3.997v19.985c0,2.21,1.788,3.997,3.997,3.997s3.997-1.787,3.997-3.997
			v-19.985C47.965,479.431,46.177,477.644,43.968,477.644z"/>
	</g>
</g>
<g>
	<g>
		<path d="M107.922,473.35c-2.209,0-3.997,1.788-3.997,3.997v19.986c0,2.209,1.788,3.996,3.997,3.996
			c2.209,0,3.998-1.787,3.997-3.996v-19.986C111.919,475.138,110.131,473.35,107.922,473.35z"/>
	</g>
</g>
<g>
</g>
<g>
</g>
<g>
</g>
<g>
</g>
<g>
</g>
<g>
</g>
<g>
</g>
<g>
</g>
<g>
</g>
<g>
</g>
<g>
</g>
<g>
</g>
<g>
</g>
<g>
</g>
<g>
</g>
</svg>
