<?xml version="1.0" encoding="iso-8859-1"?>
<!-- Generator: Adobe Illustrator 19.0.0, SVG Export Plug-In . SVG Version: 6.00 Build 0)  -->
<svg version="1.1" id="Capa_1" xmlns="http://www.w3.org/2000/svg" xmlns:xlink="http://www.w3.org/1999/xlink" x="0px" y="0px"
	 viewBox="0 0 448.263 448.263" style="enable-background:new 0 0 448.263 448.263;" xml:space="preserve">
<g>
	<g>
		<path d="M442.407,246.494c-13.993-9.494-30.495-6.804-45.102,1.631c-14.607,8.435-98.486,80-98.486,80l-82.558,0.013
			c-3.834,0-8-4.181-8-8c0-4.5,3.921-8,8-8h50.514c17.677,0,37.474-11.514,37.474-32.007c0-21.757-19.797-32.007-37.474-32.007
			c-30.669,0-36.643,0.121-36.643,0.121c-12.288,0-24.747-0.739-34.348-5.88c-12.808-6.518-27.559-10.226-43.303-10.226
			c-26.439,0-50.102,10.54-66.317,27.162L0,344.124l96,96l32-31.997h162.035c16.127,0,31.694-5.916,43.75-16.626l109.715-123.078
			C450.202,262.472,449.824,251.526,442.407,246.494z M322.505,380.11c-9.041,7.757-20.537,12.028-32.47,12.028l-169.774,0.01
			L96,417.497l-73.284-73.284l74.902-73.742c13.846-14.193,33.843-22.334,54.864-22.334c12.672,0,25.137,2.934,35.752,8.333
			c12.761,6.832,27.68,7.774,41.899,7.774c0,0,6.13-0.121,36.643-0.121c0.215,0,21.474,0.182,21.474,16.007
			c0,10.92-12.814,16.007-21.474,16.007H214.93c-11.146-0.001-22.93,8.087-22.93,25.067c0,12.643,10.226,22.93,22.934,22.93
			l89.566-0.014c0,0,94.238-78.558,101.84-82.726c7.602-4.167,16.865-6.909,24.708-3.05L322.505,380.11z"/>
	</g>
</g>
<g>
	<g>
		<path d="M96,8.138v192h320v-192H96z M112,24.138h29.368C136.522,37.809,125.68,48.553,112,53.389V24.138z M112,184.138v-29.164
			c13.64,4.831,24.418,15.55,29.261,29.164H112z M400,184.138h-29.196c4.833-13.668,15.558-24.518,29.196-29.367V184.138z
			 M400,138.576c-22.31,5.817-39.738,23.208-45.52,45.562H157.54c-5.799-22.314-23.199-39.731-45.54-45.517V69.742
			c22.342-5.785,39.72-23.252,45.526-45.605h196.934C360.26,46.501,377.666,63.939,400,69.744V138.576z M400,53.52
			c-13.701-4.838-24.541-15.686-29.39-29.382H400V53.52z"/>
	</g>
</g>
<g>
	<g>
		<path d="M344,80.138c-13.255,0-24,10.744-24,24c0,13.254,10.745,24,24,24s24-10.746,24-24C368,90.882,357.255,80.138,344,80.138z
			 M344,112.138c-4.411,0-8-3.589-8-8s3.589-8,8-8s8,3.589,8,8S348.411,112.138,344,112.138z"/>
	</g>
</g>
<g>
	<g>
		<path d="M256,40.138c-26.51,0-48,28.654-48,64c0,35.346,21.49,64,48,64c26.51,0,48-28.654,48-64
			C304,68.792,282.51,40.138,256,40.138z M256,152.138c-17.346,0-32-21.982-32-48c0-26.018,14.654-48,32-48
			c17.346,0,32,21.982,32,48C288,130.156,273.346,152.138,256,152.138z"/>
	</g>
</g>
<g>
	<g>
		<path d="M168,80.138c-13.255,0-24,10.744-24,24c0,13.254,10.745,24,24,24s24-10.746,24-24C192,90.882,181.255,80.138,168,80.138z
			 M168,112.138c-4.411,0-8-3.589-8-8s3.589-8,8-8s8,3.589,8,8S172.411,112.138,168,112.138z"/>
	</g>
</g>
<g>
</g>
<g>
</g>
<g>
</g>
<g>
</g>
<g>
</g>
<g>
</g>
<g>
</g>
<g>
</g>
<g>
</g>
<g>
</g>
<g>
</g>
<g>
</g>
<g>
</g>
<g>
</g>
<g>
</g>
</svg>
